<svg width="169" height="78" viewBox="0 0 169 78" fill="none" xmlns="http://www.w3.org/2000/svg">
<path d="M49.248 41.7266V47H30.3516V41.7266H49.248ZM32.4023 11.4531V47H25.6885V11.4531H32.4023ZM46.7822 26.126V31.2773H30.3516V26.126H46.7822ZM49.1748 11.4531V16.751H30.3516V11.4531H49.1748ZM69.6582 11.4531V47H62.9688V11.4531H69.6582ZM80.6934 11.4531V16.751H52.0557V11.4531H80.6934ZM108.721 41.7266V47H89.8242V41.7266H108.721ZM91.875 11.4531V47H85.1611V11.4531H91.875ZM106.255 26.126V31.2773H89.8242V26.126H106.255ZM108.647 11.4531V16.751H89.8242V11.4531H108.647ZM134.185 35.3057H140.898C140.719 37.682 140.06 39.7897 138.921 41.6289C137.782 43.4518 136.195 44.8841 134.16 45.9258C132.126 46.9674 129.66 47.4883 126.763 47.4883C124.533 47.4883 122.523 47.0977 120.732 46.3164C118.958 45.5189 117.437 44.3877 116.167 42.9229C114.914 41.4417 113.953 39.6676 113.286 37.6006C112.619 35.5173 112.285 33.1816 112.285 30.5938V27.8838C112.285 25.2959 112.627 22.9603 113.311 20.877C113.994 18.7936 114.971 17.0195 116.24 15.5547C117.526 14.0736 119.064 12.9342 120.854 12.1367C122.661 11.3392 124.679 10.9404 126.909 10.9404C129.806 10.9404 132.256 11.4775 134.258 12.5518C136.26 13.6097 137.814 15.0664 138.921 16.9219C140.028 18.7773 140.695 20.9095 140.923 23.3184H134.209C134.079 21.821 133.753 20.5514 133.232 19.5098C132.728 18.4681 131.963 17.6787 130.938 17.1416C129.928 16.5882 128.586 16.3115 126.909 16.3115C125.607 16.3115 124.46 16.5557 123.467 17.0439C122.49 17.5322 121.676 18.2646 121.025 19.2412C120.374 20.2015 119.886 21.4059 119.561 22.8545C119.235 24.2868 119.072 25.9469 119.072 27.835V30.5938C119.072 32.4004 119.219 34.0199 119.512 35.4521C119.805 36.8844 120.26 38.097 120.879 39.0898C121.497 40.0827 122.295 40.8395 123.271 41.3604C124.248 41.8812 125.412 42.1416 126.763 42.1416C128.407 42.1416 129.741 41.8812 130.767 41.3604C131.808 40.8395 132.598 40.0745 133.135 39.0654C133.688 38.0563 134.038 36.8031 134.185 35.3057Z" fill="white"/>
<path d="M97.9609 73.8359V77H87.2383V73.8359H97.9609ZM88.4541 55.6719V77H84.4258V55.6719H88.4541ZM104.465 61.1504V77H100.583V61.1504H104.465ZM100.319 57.0049C100.319 56.4287 100.515 55.9502 100.905 55.5693C101.306 55.1885 101.843 54.998 102.517 54.998C103.19 54.998 103.723 55.1885 104.113 55.5693C104.514 55.9502 104.714 56.4287 104.714 57.0049C104.714 57.5713 104.514 58.0449 104.113 58.4258C103.723 58.8066 103.19 58.9971 102.517 58.9971C101.843 58.9971 101.306 58.8066 100.905 58.4258C100.515 58.0449 100.319 57.5713 100.319 57.0049ZM111.95 64.5342V77H108.083V61.1504H111.716L111.95 64.5342ZM111.335 68.5039H110.192C110.202 67.3516 110.358 66.3066 110.661 65.3691C110.964 64.4316 111.389 63.626 111.936 62.9521C112.492 62.2783 113.151 61.7607 113.913 61.3994C114.675 61.0381 115.524 60.8574 116.462 60.8574C117.224 60.8574 117.912 60.9648 118.527 61.1797C119.143 61.3945 119.67 61.7363 120.109 62.2051C120.559 62.6738 120.9 63.2891 121.135 64.0508C121.379 64.8027 121.501 65.7305 121.501 66.834V77H117.604V66.8047C117.604 66.082 117.497 65.5107 117.282 65.0908C117.077 64.6709 116.774 64.373 116.374 64.1973C115.983 64.0215 115.5 63.9336 114.924 63.9336C114.328 63.9336 113.806 64.0557 113.356 64.2998C112.917 64.5342 112.546 64.8613 112.243 65.2812C111.95 65.7012 111.726 66.1846 111.569 66.7314C111.413 67.2783 111.335 67.8691 111.335 68.5039ZM133.63 72.6641C133.63 72.332 133.542 72.0342 133.366 71.7705C133.19 71.5068 132.858 71.2676 132.37 71.0527C131.892 70.8281 131.188 70.6182 130.261 70.4229C129.44 70.2471 128.684 70.0273 127.99 69.7637C127.297 69.5 126.701 69.1826 126.203 68.8115C125.705 68.4307 125.314 67.9863 125.031 67.4785C124.758 66.9609 124.621 66.3652 124.621 65.6914C124.621 65.0371 124.763 64.4219 125.046 63.8457C125.329 63.2598 125.739 62.7471 126.276 62.3076C126.813 61.8584 127.468 61.5068 128.239 61.2529C129.011 60.9893 129.88 60.8574 130.847 60.8574C132.194 60.8574 133.352 61.0771 134.318 61.5166C135.295 61.9561 136.042 62.5615 136.56 63.333C137.077 64.0947 137.336 64.9541 137.336 65.9111H133.469C133.469 65.4912 133.371 65.1104 133.176 64.7686C132.99 64.4268 132.702 64.1533 132.312 63.9482C131.921 63.7334 131.428 63.626 130.832 63.626C130.295 63.626 129.841 63.7139 129.47 63.8896C129.108 64.0654 128.835 64.2949 128.649 64.5781C128.464 64.8613 128.371 65.1738 128.371 65.5156C128.371 65.7695 128.42 65.999 128.518 66.2041C128.625 66.3994 128.796 66.5801 129.03 66.7461C129.265 66.9121 129.582 67.0635 129.982 67.2002C130.393 67.3369 130.896 67.4688 131.491 67.5957C132.673 67.8301 133.703 68.1426 134.582 68.5332C135.471 68.9141 136.164 69.4219 136.662 70.0566C137.16 70.6914 137.409 71.502 137.409 72.4883C137.409 73.1914 137.258 73.8359 136.955 74.4219C136.652 74.998 136.213 75.501 135.637 75.9307C135.061 76.3604 134.372 76.6973 133.571 76.9414C132.771 77.1758 131.867 77.293 130.861 77.293C129.406 77.293 128.176 77.0342 127.17 76.5166C126.164 75.9893 125.402 75.3252 124.885 74.5244C124.367 73.7139 124.108 72.874 124.108 72.0049H127.814C127.844 72.6201 128.01 73.1133 128.312 73.4844C128.615 73.8555 128.996 74.124 129.455 74.29C129.924 74.4463 130.417 74.5244 130.935 74.5244C131.521 74.5244 132.014 74.4463 132.414 74.29C132.814 74.124 133.117 73.9043 133.322 73.6309C133.527 73.3477 133.63 73.0254 133.63 72.6641Z" fill="white"/>
</svg>
