<svg width="55" height="55" viewBox="0 0 55 55" fill="none" xmlns="http://www.w3.org/2000/svg">
<path d="M9.07998 3.47998C5.99998 3.47998 3.47998 5.99998 3.47998 9.07998V44.92C3.47998 48 5.99998 50.52 9.07998 50.52H27.9319C28.0544 50.5419 28.1769 50.5419 28.2994 50.52H34.6519C34.7744 50.5419 34.8969 50.5419 35.0194 50.52H44.92C48 50.52 50.52 48 50.52 44.92V9.07998C50.52 5.99998 48 3.47998 44.92 3.47998H9.07998ZM9.07998 5.71998H44.92C46.7881 5.71998 48.28 7.21186 48.28 9.07998V44.92C48.28 46.7881 46.7881 48.28 44.92 48.28H35.96V32.6H40.2387L41.8094 24.76H35.96V22.52C35.96 21.8944 36.0212 21.8462 36.2269 21.7106C36.4369 21.575 37.0844 21.4 38.2 21.4H41.56V15.0956L40.9212 14.7894C40.9212 14.7894 38.3487 13.56 34.84 13.56C32.32 13.56 30.2506 14.5619 28.925 16.22C27.5994 17.8781 27 20.0919 27 22.52V24.76H23.64V32.6H27V48.28H9.07998C7.21186 48.28 5.71998 46.7881 5.71998 44.92V9.07998C5.71998 7.21186 7.21186 5.71998 9.07998 5.71998ZM34.84 15.8C37.1675 15.8 38.6331 16.3119 39.32 16.5831V19.16H38.2C36.9094 19.16 35.8769 19.265 35.0106 19.8294C34.14 20.3981 33.72 21.47 33.72 22.52V27H39.0706L38.4012 30.36H33.72V48.28H29.24V30.36H25.88V27H29.24V22.52C29.24 20.4681 29.7606 18.7619 30.675 17.62C31.5894 16.4781 32.88 15.8 34.84 15.8Z" fill="white"/>
</svg>
