<svg width="63" height="63" viewBox="0 0 63 63" fill="none" xmlns="http://www.w3.org/2000/svg">
<path d="M21 7.875C13.7607 7.875 7.875 13.7607 7.875 21V42C7.875 49.2393 13.7607 55.125 21 55.125H42C49.2393 55.125 55.125 49.2393 55.125 42V21C55.125 13.7607 49.2393 7.875 42 7.875H21ZM21 13.125H42C46.3374 13.125 49.875 16.6626 49.875 21V42C49.875 46.3374 46.3374 49.875 42 49.875H21C16.6626 49.875 13.125 46.3374 13.125 42V21C13.125 16.6626 16.6626 13.125 21 13.125ZM44.625 15.75C43.1792 15.75 42 16.9292 42 18.375C42 19.8208 43.1792 21 44.625 21C46.0708 21 47.25 19.8208 47.25 18.375C47.25 16.9292 46.0708 15.75 44.625 15.75ZM31.5 18.375C24.2607 18.375 18.375 24.2607 18.375 31.5C18.375 38.7393 24.2607 44.625 31.5 44.625C38.7393 44.625 44.625 38.7393 44.625 31.5C44.625 24.2607 38.7393 18.375 31.5 18.375ZM31.5 23.625C35.8374 23.625 39.375 27.1626 39.375 31.5C39.375 35.8374 35.8374 39.375 31.5 39.375C27.1626 39.375 23.625 35.8374 23.625 31.5C23.625 27.1626 27.1626 23.625 31.5 23.625Z" fill="white"/>
</svg>
