<svg width="35" height="35" viewBox="0 0 35 35" fill="none" xmlns="http://www.w3.org/2000/svg">
<path d="M31.2666 16.1146L17.8646 29.5167C16.2227 31.1585 13.9959 32.0809 11.6739 32.0809C9.352 32.0809 7.12516 31.1585 5.48331 29.5167C3.84145 27.8748 2.91907 25.648 2.91907 23.326C2.91907 21.0041 3.84145 18.7773 5.48331 17.1354L18.8854 3.73333C19.98 2.63876 21.4645 2.02383 23.0125 2.02383C24.5604 2.02383 26.045 2.63876 27.1396 3.73333C28.2341 4.8279 28.8491 6.31245 28.8491 7.86041C28.8491 9.40837 28.2341 10.8929 27.1396 11.9875L13.7229 25.3896C13.1756 25.9369 12.4333 26.2443 11.6593 26.2443C10.8854 26.2443 10.1431 25.9369 9.59581 25.3896C9.04852 24.8423 8.74106 24.1 8.74106 23.326C8.74106 22.5521 9.04852 21.8098 9.59581 21.2625L21.9771 8.89583" stroke="white" stroke-width="3" stroke-linecap="round" stroke-linejoin="round"/>
</svg>
